:FULLY-SPECIFIED
:FORCE-ALL-JOINTS-BE-3DOF
:DEGREES
2752
root -5.559 13.9753 -28.4071 1242 -65.4881 -161.137
lfemur -59.6177 42.9998 -6.60274
ltibia 67.8989 0 0
lfoot -2.43896 -1.56525 0
ltoes -31.5748 0 0
rfemur -30.8106 -18.7141 21.5963
rtibia 81.866 0 0
rfoot -35.2584 -24.75 0
rtoes -13.9333 0 0
lowerback 15.6667 5.79914 0.491115
upperback -4.01752 8.07856 1.4492
thorax -13.4247 3.78607 -0.844322
lowerneck -2.49027 9.60068 2.10698
upperneck 7.69873 12.5515 1.93281
head 2.89222 6.33604 0.677191
lclavicle -6.93634e-14 -1.82882e-14 0
lhumerus 3.65819 10.5334 84.1427
lradius 94.6518 0 0
lwrist -18.716 0 0
lhand -39.7287 388.035 0
lfingers 7.12502 0 0
lthumb -12.7062 -662.371 0
rclavicle -6.93634e-14 -1.82882e-14 0
rhumerus -57.8841 50.9998 -110.268
rradius 114.084 0 0
rwrist -84.7016 0 0
rhand 4.82202 -386.895 0
rfingers 7.12502 0 0
rthumb 30.2002 305.554 0
2753
root -5.56817 13.9642 -28.4139 1242.12 -65.5547 -161.239
lfemur -59.8667 43.2007 -6.68978
ltibia 68.2832 0 0
lfoot -2.58956 -1.79291 0
ltoes -31.6347 0 0
rfemur -30.8082 -18.8072 21.5179
rtibia 82.1533 0 0
rfoot -35.5536 -24.8204 0
rtoes -13.9386 0 0
lowerback 15.5804 5.79221 0.426352
upperback -4.05498 8.05461 1.43835
thorax -13.4244 3.78062 -0.80753
lowerneck -2.48911 9.60077 2.11182
upperneck 7.75624 12.5503 1.93178
head 2.912 6.33551 0.678379
lclavicle -6.71192e-14 -1.82658e-14 0
lhumerus 3.6414 10.6395 84.1399
lradius 94.612 0 0
lwrist -18.8228 0 0
lhand -39.7168 388.008 0
lfingers 7.12502 0 0
lthumb -12.6947 -662.397 0
rclavicle -6.71192e-14 -1.82658e-14 0
rhumerus -57.9333 50.9131 -110.315
rradius 114.078 0 0
rwrist -84.6624 0 0
rhand 4.90333 -386.837 0
rfingers 7.12502 0 0
rthumb 30.2778 305.626 0
2754
root -5.57734 13.9531 -28.4207 1242.24 -65.6067 -161.33
lfemur -60.0714 43.3662 -6.7636
ltibia 68.6002 0 0
lfoot -2.71667 -1.97106 0
ltoes -31.7003 0 0
rfemur -30.8097 -18.8837 21.4503
rtibia 82.3915 0 0
rfoot -35.7965 -24.8749 0
rtoes -13.9446 0 0
lowerback 15.5087 5.78751 0.371925
upperback -4.08741 8.03602 1.429
thorax -13.4256 3.7767 -0.777428
lowerneck -2.48756 9.60102 2.11599
upperneck 7.80027 12.5497 1.93044
head 2.92707 6.33526 0.679019
lclavicle -6.37595e-14 -1.80413e-14 0
lhumerus 3.623 10.728 84.1316
lradius 94.5854 0 0
lwrist -18.9092 0 0
lhand -39.7074 387.985 0
lfingers 7.12502 0 0
lthumb -12.6857 -662.419 0
rclavicle -6.37595e-14 -1.80413e-14 0
rhumerus -57.9738 50.8449 -110.352
rradius 114.074 0 0
rwrist -84.6288 0 0
rhand 4.96679 -386.79 0
rfingers 7.12502 0 0
rthumb 30.3383 305.684 0
2755
root -5.58651 13.942 -28.4276 1242.33 -65.6453 -161.413
lfemur -60.2357 43.4996 -6.82487
ltibia 68.8569 0 0
lfoot -2.82271 -2.10449 0
ltoes -31.7708 0 0
rfemur -30.8144 -18.9447 21.3926
rtibia 82.5857 0 0
rfoot -35.9924 -24.9156 0
rtoes -13.9512 0 0
lowerback 15.4503 5.78482 0.326957
upperback -4.11528 8.02233 1.42109
thorax -13.4284 3.77417 -0.753361
lowerneck -2.48568 9.60144 2.11953
upperneck 7.83227 12.5496 1.92884
head 2.93796 6.33528 0.679178
lclavicle -5.94024e-14 -1.76345e-14 0
lhumerus 3.60314 10.8006 84.1185
lradius 94.5709 0 0
lwrist -18.9769 0 0
lhand -39.7003 387.967 0
lfingers 7.12502 0 0
lthumb -12.6788 -662.437 0
rclavicle -5.94024e-14 -1.76345e-14 0
rhumerus -58.0065 50.7933 -110.382
rradius 114.071 0 0
rwrist -84.6002 0 0
rhand 5.0143 -386.752 0
rfingers 7.12502 0 0
rthumb 30.3837 305.73 0
2756
root -5.59568 13.931 -28.4344 1242.42 -65.6718 -161.488
lfemur -60.3641 43.6044 -6.87429
ltibia 69.0605 0 0
lfoot -2.91011 -2.19799 0
ltoes -31.8454 0 0
rfemur -30.8221 -18.9918 21.3439
rtibia 82.741 0 0
rfoot -36.1467 -24.9443 0
rtoes -13.9583 0 0
lowerback 15.4037 5.78394 0.290571
upperback -4.13906 8.01305 1.41457
thorax -13.4325 3.77289 -0.734671
lowerneck -2.48352 9.60203 2.12247
upperneck 7.85371 12.5501 1.927
head 2.94516 6.33553 0.678923
lclavicle -5.41663e-14 -1.7065e-14 0
lhumerus 3.58202 10.859 84.101
lradius 94.5672 0 0
lwrist -19.0276 0 0
lhand -39.6952 387.952 0
lfingers 7.12502 0 0
lthumb -12.6739 -662.452 0
rclavicle -5.41663e-14 -1.7065e-14 0
rhumerus -58.0324 50.7568 -110.405
rradius 114.07 0 0
rwrist -84.5763 0 0
rhand 5.04778 -386.723 0
rfingers 7.12502 0 0
rthumb 30.4156 305.765 0
2757
root -5.60485 13.9199 -28.4412 1242.5 -65.6874 -161.555
lfemur -60.4607 43.6839 -6.91254
ltibia 69.2179 0 0
lfoot -2.98127 -2.25634 0
ltoes -31.9233 0 0
rfemur -30.8322 -19.0262 21.3033
rtibia 82.8626 0 0
rfoot -36.2646 -24.9627 0
rtoes -13.9656 0 0
lowerback 15.3677 5.78467 0.261892
upperback -4.15921 8.00772 1.40937
thorax -13.4378 3.77274 -0.720704
lowerneck -2.48113 9.6028 2.12486
upperneck 7.86605 12.551 1.92496
head 2.94919 6.33603 0.678322
lclavicle -4.81693e-14 -1.63525e-14 0
lhumerus 3.55979 10.9052 84.0797
lradius 94.573 0 0
lwrist -19.063 0 0
lhand -39.692 387.941 0
lfingers 7.12502 0 0
lthumb -12.6708 -662.463 0
rclavicle -4.81693e-14 -1.63525e-14 0
rhumerus -58.0523 50.7336 -110.422
rradius 114.07 0 0
rwrist -84.5565 0 0
rhand 5.06912 -386.702 0
rfingers 7.12502 0 0
rthumb 30.436 305.79 0
2758
root -5.61402 13.9088 -28.448 1242.56 -65.6934 -161.615
lfemur -60.5297 43.7416 -6.9403
ltibia 69.3362 0 0
lfoot -3.03863 -2.28433 0
ltoes -32.0037 0 0
rfemur -30.8443 -19.0492 21.2698
rtibia 82.9557 0 0
rfoot -36.3516 -24.9729 0
rtoes -13.9731 0 0
lowerback 15.341 5.78679 0.240043
upperback -4.17621 8.00587 1.40544
thorax -13.4442 3.77359 -0.710801
lowerneck -2.47856 9.60376 2.12671
upperneck 7.87077 12.5524 1.92274
head 2.95056 6.33674 0.677442
lclavicle -4.15296e-14 -1.55168e-14 0
lhumerus 3.53665 10.9407 84.055
lradius 94.5871 0 0
lwrist -19.0849 0 0
lhand -39.6903 387.933 0
lfingers 7.12502 0 0
lthumb -12.6692 -662.471 0
rclavicle -4.15296e-14 -1.55168e-14 0
rhumerus -58.0671 50.7222 -110.433
rradius 114.071 0 0
rwrist -84.5403 0 0
rhand 5.08024 -386.687 0
rfingers 7.12502 0 0
rthumb 30.4466 305.806 0
2759
root -5.62319 13.8977 -28.4548 1242.62 -65.6909 -161.67
lfemur -60.5754 43.7808 -6.95825
ltibia 69.4224 0 0
lfoot -3.08459 -2.28674 0
ltoes -32.0858 0 0
rfemur -30.858 -19.0623 21.2427
rtibia 83.0254 0 0
rfoot -36.4128 -24.9766 0
rtoes -13.9805 0 0
lowerback 15.3221 5.79011 0.224147
upperback -4.19054 8.00704 1.40273
thorax -13.4515 3.7753 -0.704306
lowerneck -2.47587 9.60492 2.12807
upperneck 7.86932 12.5542 1.92039
head 2.94978 6.33765 0.67635
lclavicle -3.43653e-14 -1.45776e-14 0
lhumerus 3.51275 10.9676 84.0276
lradius 94.6082 0 0
lwrist -19.0951 0 0
lhand -39.69 387.927 0
lfingers 7.12502 0 0
lthumb -12.6689 -662.477 0
rclavicle -3.43653e-14 -1.45776e-14 0
rhumerus -58.0777 50.7207 -110.44
rradius 114.072 0 0
rwrist -84.5273 0 0
rhand 5.08302 -386.678 0
rfingers 7.12502 0 0
rthumb 30.4493 305.816 0
2760
root -5.63236 13.8866 -28.4617 1242.67 -65.6812 -161.719
lfemur -60.6019 43.805 -6.96709
ltibia 69.4836 0 0
lfoot -3.12157 -2.26837 0
ltoes -32.1688 0 0
rfemur -30.8728 -19.0667 21.2209
rtibia 83.0769 0 0
rfoot -36.4538 -24.9758 0
rtoes -13.9878 0 0
lowerback 15.3097 5.79441 0.213327
upperback -4.20265 8.01075 1.40118
thorax -13.4595 3.77774 -0.700564
lowerneck -2.47311 9.60628 2.12897
upperneck 7.86316 12.5565 1.91794
head 2.94737 6.33876 0.675113
lclavicle -2.67948e-14 -1.35545e-14 0
lhumerus 3.48828 10.9875 83.9978
lradius 94.6351 0 0
lwrist -19.0951 0 0
lhand -39.6907 387.924 0
lfingers 7.12502 0 0
lthumb -12.6696 -662.48 0
rclavicle -2.67948e-14 -1.35545e-14 0
rhumerus -58.085 50.7277 -110.445
rradius 114.074 0 0
rwrist -84.5169 0 0
rhand 5.07939 -386.673 0
rfingers 7.12502 0 0
rthumb 30.4458 305.82 0
2761
root -5.64153 13.8755 -28.4685 1242.72 -65.6656 -161.765
lfemur -60.6135 43.8175 -6.96749
ltibia 69.5269 0 0
lfoot -3.15201 -2.234 0
ltoes -32.2518 0 0
rfemur -30.8882 -19.0638 21.2035
rtibia 83.1154 0 0
rfoot -36.4797 -24.9723 0
rtoes -13.9947 0 0
lowerback 15.3026 5.79949 0.206707
upperback -4.21303 8.01654 1.40073
thorax -13.4683 3.78078 -0.698917
lowerneck -2.47032 9.60784 2.12946
upperneck 7.85377 12.5591 1.91541
head 2.94383 6.34004 0.673799
lclavicle -1.89362e-14 -1.24672e-14 0
lhumerus 3.46341 11.0022 83.9663
lradius 94.6665 0 0
lwrist -19.0869 0 0
lhand -39.6923 387.922 0
lfingers 7.12502 0 0
lthumb -12.6711 -662.481 0
rclavicle -1.89362e-14 -1.24672e-14 0
rhumerus -58.0899 50.7413 -110.446
rradius 114.076 0 0
rwrist -84.5087 0 0
rhand 5.07125 -386.672 0
rfingers 7.12502 0 0
rthumb 30.4381 305.82 0
2762
root -5.6507 13.8644 -28.4753 1242.76 -65.6453 -161.807
lfemur -60.6144 43.8217 -6.96014
ltibia 69.5592 0 0
lfoot -3.1783 -2.18841 0
ltoes -32.3341 0 0
rfemur -30.9038 -19.0549 21.1898
rtibia 83.146 0 0
rfoot -36.4959 -24.9679 0
rtoes -14.0012 0 0
lowerback 15.2992 5.80515 0.203411
upperback -4.22214 8.02393 1.40132
thorax -13.4775 3.78429 -0.698709
lowerneck -2.46758 9.60963 2.12955
upperneck 7.84261 12.5621 1.91284
head 2.93968 6.34148 0.672473
lclavicle -1.09076e-14 -1.13356e-14 0
lhumerus 3.43832 11.0135 83.9336
lradius 94.7012 0 0
lwrist -19.072 0 0
lhand -39.6945 387.923 0
lfingers 7.12502 0 0
lthumb -12.6733 -662.481 0
rclavicle -1.09076e-14 -1.13356e-14 0
rhumerus -58.0933 50.7599 -110.447
rradius 114.078 0 0
rwrist -84.5022 0 0
rhand 5.06049 -386.673 0
rfingers 7.12502 0 0
rthumb 30.4278 305.817 0
2763
root -5.65988 13.8534 -28.4821 1242.79 -65.6215 -161.846
lfemur -60.6087 43.8211 -6.94573
ltibia 69.5876 0 0
lfoot -3.20287 -2.13639 0
ltoes -32.4148 0 0
rfemur -30.9191 -19.0414 21.1787
rtibia 83.1738 0 0
rfoot -36.5078 -24.9646 0
rtoes -14.0069 0 0
lowerback 15.2984 5.81117 0.202561
upperback -4.23045 8.03246 1.4029
thorax -13.4871 3.78813 -0.699284
lowerneck -2.46491 9.61164 2.12929
upperneck 7.83113 12.5654 1.91027
head 2.93542 6.34307 0.671205
lclavicle -2.82739e-15 -1.01792e-14 0
lhumerus 3.41317 11.0233 83.9001
lradius 94.7379 0 0
lwrist -19.0523 0 0
lhand -39.6971 387.924 0
lfingers 7.12502 0 0
lthumb -12.6758 -662.48 0
rclavicle -2.82739e-15 -1.01792e-14 0
rhumerus -58.0961 50.7819 -110.447
rradius 114.079 0 0
rwrist -84.4969 0 0
rhand 5.04903 -386.675 0
rfingers 7.12502 0 0
rthumb 30.4169 305.813 0
